# xmcd
#
# Track frame offsets:
#	150
#	16464
#	35045
#	48471
#	81165
#	98338
#	122189
#	146086
#	170137
#	190138
#	225054
#	238966
#	253595
#
# Disc length: 3471
#
# Revision: 1
# Processed by: cddbd v1.5.1PL0 Copyright (c) Steve Scherf et al.
# Submitted via: Grip 2.96
# Normalized: r0:DSETVAR1
#
DISCID=ac0d8d0d
DTITLE=Various Artist - A Collection of tears
DYEAR=1900
DGENRE=
TTITLE0=System of a down - Spiders
TTITLE1=System of a down - Chop suey
TTITLE2=System of a down - Atwa
TTITLE3=Tool - The patient
TTITLE4=tripped - Whipping boy
TTITLE5=Muse - Showbiz
TTITLE6=R.E.M. - Everybody hurts
TTITLE7=Coalminer's beat - Take me high above
TTITLE8=Radiohead - Exit music
TTITLE9=The Insider OST - Sacrifice
TTITLE10=The Insider OST - Faith
TTITLE11=Gloomy sunday OST - Gloomy sunday
TTITLE12=Gloomy sunday OST - Trauriger Sonntag
EXTD=
EXTT0=
EXTT1=
EXTT2=
EXTT3=
EXTT4=
EXTT5=
EXTT6=
EXTT7=
EXTT8=
EXTT9=
EXTT10=
EXTT11=
EXTT12=
PLAYORDER=
